<svg width="33" height="32" viewBox="0 0 33 32" fill="none" xmlns="http://www.w3.org/2000/svg">
<path d="M22.4974 0C20.7914 0.117999 18.7974 1.20999 17.6354 2.63198C16.5754 3.92198 15.7034 5.83797 16.0434 7.69995C17.9074 7.75795 19.8334 6.63996 20.9494 5.19397C21.9934 3.84798 22.7834 1.94399 22.4974 0Z" fill="white"/>
<path d="M29.243 10.7304C27.605 8.67637 25.3031 7.48438 23.1291 7.48438C20.2591 7.48438 19.0451 8.85837 17.0511 8.85837C14.9951 8.85837 13.4331 7.48838 10.9511 7.48838C8.51315 7.48838 5.91717 8.97837 4.27118 11.5264C1.95719 15.1143 2.35319 21.8603 6.10317 27.6063C7.44516 29.6622 9.23715 31.9742 11.5811 31.9942C13.6671 32.0142 14.2551 30.6562 17.0811 30.6422C19.9071 30.6262 20.4431 32.0122 22.5251 31.9902C24.8711 31.9722 26.761 29.4102 28.103 27.3543C29.065 25.8803 29.423 25.1383 30.169 23.4743C24.7431 21.4083 23.8731 13.6923 29.243 10.7304Z" fill="white"/>
</svg>
