<svg width="24" height="25" viewBox="0 0 24 25" fill="none" xmlns="http://www.w3.org/2000/svg">
<g clip-path="url(#clip0_504_33)">
<path d="M12 24.5C18.6274 24.5 24 19.1274 24 12.5C24 5.87258 18.6274 0.5 12 0.5C5.37258 0.5 0 5.87258 0 12.5C0 19.1274 5.37258 24.5 12 24.5Z" fill="#F0F0F0"/>
<path d="M12 24.5C18.6274 24.5 24 19.1274 24 12.5C24 11.0322 23.736 9.62605 23.2536 8.32611H0.746391C0.264047 9.62605 0 11.0322 0 12.5C0 19.1274 5.37262 24.5 12 24.5Z" fill="#0052B4"/>
<path d="M12.0001 24.5C17.1596 24.5 21.5582 21.2435 23.2537 16.6739H0.74646C2.44198 21.2435 6.84049 24.5 12.0001 24.5Z" fill="#D80027"/>
<path d="M3.10303 7.28262V13.2688C3.10303 16.674 7.55151 17.7174 7.55151 17.7174C7.55151 17.7174 11.9999 16.674 11.9999 13.2688V7.28262H3.10303Z" fill="#F0F0F0"/>
<path d="M4.14648 7.28262V13.2688C4.14648 13.6686 4.23527 14.0461 4.41114 14.4001H10.6918C10.8677 14.0462 10.9564 13.6686 10.9564 13.2688V7.28262H4.14648Z" fill="#D80027"/>
<path d="M9.63837 11.4565H8.07321V10.413H9.1167V9.36955H8.07321V8.32611H7.02973V9.36955H5.98629V10.413H7.02973V11.4565H5.46448V12.5H7.02973V13.5435H8.07321V12.5H9.63837V11.4565Z" fill="#F0F0F0"/>
<path d="M5.83464 15.8567C6.50706 16.2793 7.19791 16.5246 7.55158 16.6338C7.90525 16.5247 8.5961 16.2793 9.26852 15.8567C9.94661 15.4305 10.422 14.9431 10.6919 14.4001C10.3942 14.1895 10.0309 14.0652 9.63855 14.0652C9.49567 14.0652 9.35688 14.0822 9.22342 14.1132C8.94063 13.4707 8.29867 13.0218 7.55163 13.0218C6.80458 13.0218 6.16258 13.4707 5.87983 14.1132C5.74638 14.0822 5.60753 14.0652 5.46471 14.0652C5.07231 14.0652 4.70908 14.1895 4.41138 14.4001C4.68114 14.9431 5.1565 15.4305 5.83464 15.8567Z" fill="#0052B4"/>
</g>
<defs>
<clipPath id="clip0_504_33">
<rect width="24" height="24" fill="white" transform="translate(0 0.5)"/>
</clipPath>
</defs>
</svg>
