<svg width="32" height="32" viewBox="0 0 32 32" fill="none" xmlns="http://www.w3.org/2000/svg">
<path d="M5.81811 19.6426C5.81811 20.446 5.16699 21.0972 4.36352 21.0972C3.5603 21.0972 2.90918 20.446 2.90918 19.6426C2.90918 18.8394 3.5603 18.188 4.36352 18.188C5.16699 18.188 5.81811 18.8394 5.81811 19.6426Z" fill="white"/>
<path d="M5.81811 25.4607C5.81811 26.2642 5.16699 26.9153 4.36352 26.9153C3.5603 26.9153 2.90918 26.2642 2.90918 25.4607C2.90918 24.6575 3.5603 24.0063 4.36352 24.0063C5.16699 24.0063 5.81811 24.6575 5.81811 25.4607Z" fill="white"/>
<path d="M8.72729 22.5518C8.72729 23.355 8.07592 24.0063 7.2727 24.0063C6.46948 24.0063 5.81811 23.355 5.81811 22.5518C5.81811 21.7483 6.46948 21.0972 7.2727 21.0972C8.07592 21.0972 8.72729 21.7483 8.72729 22.5518Z" fill="white"/>
<path d="M11.6362 19.6426C11.6362 20.446 10.9851 21.0972 10.1819 21.0972C9.37841 21.0972 8.72729 20.446 8.72729 19.6426C8.72729 18.8394 9.37841 18.188 10.1819 18.188C10.9851 18.188 11.6362 18.8394 11.6362 19.6426Z" fill="white"/>
<path d="M11.6362 25.4607C11.6362 26.2642 10.9851 26.9153 10.1819 26.9153C9.37841 26.9153 8.72729 26.2642 8.72729 25.4607C8.72729 24.6575 9.37841 24.0063 10.1819 24.0063C10.9851 24.0063 11.6362 24.6575 11.6362 25.4607Z" fill="white"/>
<path d="M13.8181 15.2788H0.727295C0.325928 15.2786 0.000244278 15.6038 1.37377e-07 16.0051V16.0061V29.0969C-0.000244003 29.4983 0.324951 29.824 0.726318 29.8242H0.727295H13.8181C14.2195 29.8245 14.5452 29.4995 14.5454 29.0981C14.5454 29.0976 14.5454 29.0974 14.5454 29.0969V16.0061C14.5456 15.6047 14.2204 15.2791 13.8191 15.2788C13.8188 15.2788 13.8183 15.2788 13.8181 15.2788ZM13.0908 28.3696H1.45459V16.7334H13.0908V28.3696Z" fill="white"/>
<path d="M18.7351 9.38696C17.9592 9.17847 17.1614 9.63818 16.9529 10.4141C16.7441 11.1897 17.2041 11.9878 17.9797 12.1963C18.7556 12.4048 19.5535 11.9451 19.7619 11.1692C19.8623 10.7964 19.81 10.3989 19.6172 10.0645C19.4253 9.72998 19.1079 9.48584 18.7351 9.38696Z" fill="white"/>
<path d="M21.644 14.426C20.8703 14.2107 20.0681 14.6633 19.8528 15.4375C19.6374 16.2114 20.0903 17.0132 20.8642 17.2288C20.873 17.231 20.8818 17.2334 20.8906 17.2356C21.0141 17.2688 21.1413 17.2854 21.269 17.2854C22.0725 17.2844 22.7229 16.6323 22.7217 15.8291C22.7209 15.1716 22.2793 14.5964 21.644 14.426Z" fill="white"/>
<path d="M22.6689 6.62281C21.9734 7.02442 21.7351 7.91407 22.1367 8.60987C22.5383 9.30542 23.428 9.5437 24.1238 9.14209C24.8193 8.74048 25.0576 7.85108 24.6562 7.15552C24.2536 6.4607 23.365 6.22242 22.6689 6.62281Z" fill="white"/>
<path d="M26.3081 14.3755C27.1115 14.374 27.7615 13.7214 27.7597 12.918C27.7593 12.6641 27.6921 12.4146 27.5654 12.1946L27.5647 12.1939C27.1628 11.4981 26.2734 11.2598 25.5776 11.6614C24.8821 12.063 24.6435 12.9526 25.0454 13.6482C25.3056 14.0994 25.7873 14.3767 26.3081 14.3755Z" fill="white"/>
<path d="M31.9026 13.8889L25.3572 2.55152C25.1567 2.20362 24.7124 2.08424 24.3645 2.28468C24.3642 2.28492 24.364 2.28517 24.3635 2.28541L13.0261 8.83081C12.6787 9.03174 12.5596 9.47632 12.7598 9.82422L19.3054 21.1609C19.4355 21.386 19.676 21.5247 19.936 21.5244C20.0635 21.5247 20.1887 21.491 20.2988 21.4265L31.6362 14.8826C31.9839 14.6816 32.1032 14.2371 31.9026 13.8889ZM20.2016 19.8044L14.3835 9.72705L24.4609 3.90894L30.279 13.9863L20.2016 19.8044Z" fill="white"/>
</svg>
