<svg width="32" height="32" viewBox="0 0 32 32" fill="none" xmlns="http://www.w3.org/2000/svg">
<g clip-path="url(#clip0_504_13838)">
<path d="M21.5332 23.3318C27.1873 20.2898 29.3047 13.2402 26.2625 7.58618C24.6543 4.59717 21.8203 2.46021 18.5044 1.73633L18.8462 1.05273C19.0261 0.694092 18.8811 0.257325 18.5225 0.077149C18.4209 0.0263677 18.3091 5.49147e-07 18.1958 5.49147e-07H13.832C13.4307 -0.000487732 13.105 0.324708 13.1045 0.726075C13.1042 0.839356 13.1309 0.951172 13.1816 1.05249L13.5234 1.73633C7.25049 3.10547 3.27564 9.30078 4.64502 15.5735C5.3689 18.8894 7.50562 21.7236 10.4946 23.3315L7.34204 30.9956C7.18921 31.3672 7.36621 31.7922 7.73755 31.9453C7.8252 31.9814 7.91895 32 8.01392 32H24.0139C24.4155 31.9998 24.741 31.6738 24.7407 31.2722C24.7405 31.1772 24.7219 31.0835 24.6858 30.9956L21.5332 23.3318ZM9.35645 20.7766L14.5457 15.5876C14.7769 15.7249 15.0264 15.8289 15.2866 15.8967V23.2358C13.0955 23.0811 11.0142 22.2178 9.35645 20.7766ZM5.8689 13.8181H13.2083C13.2761 14.0784 13.3801 14.3279 13.5171 14.5591L8.32813 19.7483C6.88696 18.0906 6.02393 16.0093 5.8689 13.8181ZM8.32764 6.43311L13.5171 11.6226C13.3799 11.854 13.2759 12.1035 13.208 12.3635H5.86597C6.02319 10.1726 6.88696 8.09155 8.32764 6.43311ZM16.0139 11.6365C16.8171 11.6365 17.4685 12.2876 17.4685 13.0908C17.4685 13.8943 16.8171 14.5454 16.0139 14.5454C15.2107 14.5454 14.5593 13.8943 14.5593 13.0908C14.5598 12.2878 15.2107 11.637 16.0139 11.6365ZM23.7002 6.43311C25.1409 8.09155 26.0046 10.1726 26.1619 12.3635H18.8196C18.7517 12.1035 18.6477 11.854 18.5107 11.6226L23.7002 6.43311ZM23.6997 19.7483L18.5107 14.5591C18.6477 14.3279 18.7517 14.0784 18.8196 13.8181H26.1589C26.0039 16.0093 25.1409 18.0906 23.6997 19.7483ZM16.7412 15.8967C17.0015 15.8289 17.2507 15.7249 17.4822 15.5876L22.6711 20.7766C21.0134 22.2178 18.9321 23.0811 16.7412 23.2358V15.8967ZM22.6665 5.40991L17.4822 10.5942C17.2507 10.457 17.0015 10.353 16.7412 10.2852V5.2627L17.8264 3.09253C19.6191 3.41455 21.2915 4.21533 22.6665 5.40991ZM17.0195 1.45459L16.0139 3.4646L15.0081 1.45459H17.0195ZM15.2866 5.2627V10.2852C15.0264 10.353 14.7769 10.457 14.5457 10.5942L9.36133 5.40967C10.7363 4.21533 12.4087 3.41455 14.2017 3.09229L15.2866 5.2627ZM9.09912 30.5454L11.8191 23.9326C14.5151 24.9922 17.5125 24.9922 20.2083 23.9326L22.9287 30.5454H9.09912Z" fill="white"/>
</g>
<defs>
<clipPath id="clip0_504_13838">
<rect width="32" height="32" fill="white"/>
</clipPath>
</defs>
</svg>
