<svg width="25" height="24" viewBox="0 0 25 24" fill="none" xmlns="http://www.w3.org/2000/svg">
<g clip-path="url(#clip0_461_2207)">
<path d="M12.5 22.3784C12.3786 22.3784 12.2573 22.347 12.1485 22.2842C12.0304 22.2161 9.22393 20.5866 6.37722 18.1314C4.69 16.6763 3.34319 15.233 2.37429 13.8417C1.12048 12.0415 0.489965 10.3098 0.500136 8.69482C0.512043 6.8156 1.18512 5.04833 2.39552 3.71848C3.62636 2.36624 5.26895 1.62158 7.02081 1.62158C9.26598 1.62158 11.3187 2.87924 12.5001 4.87151C13.6815 2.87928 15.7342 1.62158 17.9793 1.62158C19.6344 1.62158 21.2135 2.29349 22.4258 3.51355C23.7563 4.85243 24.5123 6.74421 24.4999 8.70372C24.4897 10.3159 23.8474 12.0449 22.5908 13.8427C21.6189 15.2333 20.2739 16.6759 18.5933 18.1306C15.757 20.5856 12.9707 22.215 12.8535 22.2831C12.7442 22.3466 12.6221 22.3784 12.5 22.3784Z" fill="#FFF72E"/>
</g>
<defs>
<clipPath id="clip0_461_2207">
<rect width="24" height="24" fill="white" transform="translate(0.5)"/>
</clipPath>
</defs>
</svg>
