<svg width="32" height="32" viewBox="0 0 32 32" fill="none" xmlns="http://www.w3.org/2000/svg">
<g clip-path="url(#clip0_504_13835)">
<path d="M21.8181 5.8125H10.1819C4.55858 5.8125 -9.53674e-06 10.3711 -9.53674e-06 15.9944C-9.53674e-06 21.6177 4.55858 26.176 10.1819 26.176H21.8181C27.4414 26.176 32 21.6177 32 15.9944C32 10.3711 27.4414 5.8125 21.8181 5.8125ZM10.1819 21.8125C6.9685 21.8125 4.36352 19.2075 4.36352 15.9944C4.36352 12.781 6.9685 10.176 10.1819 10.176H21.8181C25.0315 10.176 27.6365 12.781 27.6365 15.9944C27.6365 19.2075 25.0315 21.8125 21.8181 21.8125H10.1819ZM1.49145 16.7217H2.98241C3.10009 17.9707 3.54223 19.1677 4.26464 20.1936L3.12108 21.1035C2.18676 19.8198 1.62304 18.304 1.49145 16.7217ZM3.12108 10.8853L4.26488 11.7952C3.54247 12.821 3.10033 14.0178 2.98266 15.2671H1.49169C1.62328 13.6848 2.18676 12.1689 3.12108 10.8853ZM5.22753 10.7007L4.06713 9.7771C5.33983 8.52515 6.96679 7.69458 8.72729 7.39844V8.86865C7.41356 9.14307 6.20189 9.77759 5.22753 10.7007ZM5.22753 21.2878C6.20189 22.2112 7.41356 22.8455 8.72729 23.1201V24.5901C6.96654 24.2939 5.33959 23.4634 4.06713 22.2112L5.22753 21.2878ZM26.7725 10.7007C25.7981 9.77759 24.5864 9.14331 23.2727 8.86865V7.39844C25.0334 7.69458 26.6604 8.52515 27.9329 9.77734L26.7725 10.7007ZM26.7725 21.2878L27.9329 22.2114C26.6601 23.4636 25.0332 24.2939 23.2727 24.5901V23.1199C24.5864 22.8455 25.7981 22.2112 26.7725 21.2878ZM28.8789 21.1035L27.7351 20.1936C28.4575 19.1677 28.8996 17.9707 29.0173 16.7217H30.5083C30.3767 18.304 29.8132 19.8196 28.8789 21.1035ZM29.0173 15.2671C28.8996 14.0178 28.4575 12.821 27.7349 11.7952L28.8787 10.8853C29.8132 12.1689 30.3769 13.6846 30.5085 15.2671H29.0173ZM21.8181 8.72168H16.7273V7.26709H21.8181V8.72168ZM15.2727 7.26709V8.72168H10.1819V7.26709H15.2727ZM10.1819 23.2671H15.2727V24.7217H10.1819V23.2671ZM16.7273 24.7217V23.2671H21.8181V24.7217H16.7273Z" fill="white"/>
</g>
<defs>
<clipPath id="clip0_504_13835">
<rect width="32" height="32" fill="white"/>
</clipPath>
</defs>
</svg>
