<svg width="32" height="32" viewBox="0 0 32 32" fill="none" xmlns="http://www.w3.org/2000/svg">
<g clip-path="url(#clip0_504_13823)">
<path d="M30.3847 22.2568C30.3103 21.8826 29.9819 21.613 29.6003 21.613H20.0002C19.6189 21.6133 19.2905 21.8826 19.216 22.2566L17.6162 30.2568C17.5293 30.6894 17.8095 31.1106 18.2419 31.1975C18.2942 31.208 18.3471 31.2131 18.4001 31.2131H31.2004C31.6416 31.2133 31.9997 30.8559 31.9999 30.4148C31.9999 30.3618 31.9948 30.3088 31.9843 30.2568L30.3847 22.2568ZM19.3762 29.613L20.6562 23.2129H28.945L30.225 29.613H19.3762Z" fill="white"/>
<path d="M12 21.613H2.3999C2.01855 21.6133 1.69018 21.8826 1.61572 22.2566L0.0158704 30.2568C-0.0710435 30.6894 0.209229 31.1106 0.641846 31.1975C0.693848 31.2077 0.746826 31.2131 0.799805 31.2131H13.6001C14.0412 31.2136 14.3991 30.8562 14.3996 30.415C14.3999 30.3618 14.3945 30.3088 14.384 30.2568L12.7839 22.2566C12.7095 21.8826 12.3813 21.6133 12 21.613ZM1.77588 29.613L3.0559 23.2129H11.3445L12.6245 29.613H1.77588Z" fill="white"/>
<path d="M16 5.61257C16.4419 5.61257 16.8 5.25442 16.8 4.81252V1.61258C16.8 1.17068 16.4419 0.812531 16 0.812531C15.5581 0.812531 15.2002 1.17068 15.2002 1.61258V4.81252C15.2002 5.25442 15.5581 5.61257 16 5.61257Z" fill="white"/>
<path d="M8.90697 6.5984C9.05003 6.84595 9.31444 6.99854 9.60057 6.99854C9.74095 6.99854 9.87889 6.96143 9.99998 6.89063C10.3823 6.67042 10.5137 6.18214 10.2937 5.79981C10.2934 5.79933 10.2932 5.79884 10.2927 5.79835L8.69286 3.02638C8.47191 2.64357 7.98241 2.51247 7.59984 2.73341C7.21703 2.95436 7.08593 3.44362 7.30687 3.82643L8.90697 6.5984Z" fill="white"/>
<path d="M3.22875 10.3049L5.99975 11.905C6.12084 11.9758 6.25878 12.013 6.39891 12.0127C6.84081 12.0127 7.19896 11.6543 7.19896 11.2127C7.19872 10.9273 7.04686 10.6636 6.79979 10.5205L4.02856 8.92043C3.64623 8.69972 3.15746 8.83034 2.93652 9.21266C2.71557 9.59499 2.84643 10.084 3.22875 10.3049Z" fill="white"/>
<path d="M8.98119 18.1206C9.13353 18.3054 9.36034 18.4126 9.59984 18.4128H22.4001C22.8415 18.4133 23.1994 18.0559 23.1999 17.6145C23.1999 17.5615 23.1948 17.5085 23.1843 17.4565L21.5842 9.45656C21.5097 9.08229 21.1816 8.813 20.8003 8.81276H11.1999C10.8186 8.813 10.4905 9.08229 10.416 9.45656L8.81591 17.4565C8.76903 17.6914 8.82982 17.9351 8.98119 18.1206ZM11.8555 10.4126H20.1447L21.4248 16.8127H10.5759L11.8555 10.4126Z" fill="white"/>
<path d="M2.3999 16.8127H5.59984C6.04174 16.8127 6.39989 16.4546 6.39989 16.0129C6.39989 15.571 6.04174 15.2129 5.59984 15.2129H2.3999C1.958 15.2129 1.59985 15.571 1.59985 16.0129C1.59985 16.4546 1.958 16.8127 2.3999 16.8127Z" fill="white"/>
<path d="M25.6003 16.0129C25.6003 16.4546 25.9585 16.8127 26.4004 16.8127H29.6003C30.0422 16.8127 30.4003 16.4546 30.4003 16.0129C30.4003 15.571 30.0422 15.2129 29.6003 15.2129H26.4004C25.9585 15.2129 25.6003 15.571 25.6003 16.0129Z" fill="white"/>
<path d="M22.0002 6.89063C22.1213 6.96143 22.259 6.99854 22.3994 6.99854C22.6855 6.99854 22.9499 6.84595 23.0932 6.5984L24.6933 3.82643C24.914 3.44362 24.7829 2.95436 24.4001 2.73341C24.0175 2.51247 23.528 2.64357 23.3073 3.02638L21.7072 5.79835C21.4863 6.18018 21.6169 6.66871 21.9987 6.88966C21.9992 6.89014 21.9997 6.89039 22.0002 6.89063Z" fill="white"/>
<path d="M25.601 12.0127C25.7414 12.013 25.8794 11.9756 26.0004 11.905L28.7714 10.3049C29.1538 10.084 29.2846 9.59499 29.0637 9.21266C28.8427 8.83034 28.3537 8.69948 27.9714 8.92043L25.2004 10.5205C24.8181 10.742 24.6877 11.2315 24.9091 11.6138C25.052 11.8606 25.3159 12.0127 25.601 12.0127Z" fill="white"/>
</g>
<defs>
<clipPath id="clip0_504_13823">
<rect width="32" height="32" fill="white"/>
</clipPath>
</defs>
</svg>
