<svg width="117" height="11" viewBox="0 0 117 11" fill="none" xmlns="http://www.w3.org/2000/svg">
<path opacity="0.4" d="M8.27778 5.5L0.5 5.5M28.5 5.5L20.7222 5.5" stroke="url(#paint0_linear_497_2074)"/>
<path d="M14.4497 1.20711L18.6924 5.44975L14.4497 9.69239L10.2071 5.44975L14.4497 1.20711Z" stroke="#FFF72E"/>
<path d="M15.2071 5.5L14.5 6.20711L13.7929 5.5L14.5 4.79289L15.2071 5.5Z" stroke="#FFF72E"/>
<path opacity="0.4" d="M52.2778 5.5L44.5 5.5M72.5 5.5L64.7222 5.5" stroke="url(#paint1_linear_497_2074)"/>
<path d="M58.4498 1.20711L62.6924 5.44975L58.4498 9.69239L54.2071 5.44975L58.4498 1.20711Z" stroke="#FFF72E"/>
<path d="M59.2071 5.5L58.5 6.20711L57.7929 5.5L58.5 4.79289L59.2071 5.5Z" stroke="#FFF72E"/>
<path opacity="0.4" d="M96.2778 5.5L88.5 5.5M116.5 5.5L108.722 5.5" stroke="url(#paint2_linear_497_2074)"/>
<path d="M102.45 1.20711L106.692 5.44975L102.45 9.69239L98.2071 5.44975L102.45 1.20711Z" stroke="#FFF72E"/>
<path d="M103.207 5.5L102.5 6.20711L101.793 5.5L102.5 4.79289L103.207 5.5Z" stroke="#FFF72E"/>
<defs>
<linearGradient id="paint0_linear_497_2074" x1="0.5" y1="5.5" x2="28.5" y2="5.5" gradientUnits="userSpaceOnUse">
<stop stop-color="#FFF72E" stop-opacity="0"/>
<stop offset="0.1875" stop-color="#FFF72E"/>
<stop offset="0.796875" stop-color="#FFF72E" stop-opacity="0.972603"/>
<stop offset="1" stop-color="#FFF72E" stop-opacity="0"/>
</linearGradient>
<linearGradient id="paint1_linear_497_2074" x1="44.5" y1="5.5" x2="72.5" y2="5.5" gradientUnits="userSpaceOnUse">
<stop stop-color="#FFF72E" stop-opacity="0"/>
<stop offset="0.1875" stop-color="#FFF72E"/>
<stop offset="0.796875" stop-color="#FFF72E" stop-opacity="0.972603"/>
<stop offset="1" stop-color="#FFF72E" stop-opacity="0"/>
</linearGradient>
<linearGradient id="paint2_linear_497_2074" x1="88.5" y1="5.5" x2="116.5" y2="5.5" gradientUnits="userSpaceOnUse">
<stop stop-color="#FFF72E" stop-opacity="0"/>
<stop offset="0.1875" stop-color="#FFF72E"/>
<stop offset="0.796875" stop-color="#FFF72E" stop-opacity="0.972603"/>
<stop offset="1" stop-color="#FFF72E" stop-opacity="0"/>
</linearGradient>
</defs>
</svg>
