<svg width="30" height="25" viewBox="0 0 30 25" fill="none" xmlns="http://www.w3.org/2000/svg">
<path d="M17.8765 24.244C16.2118 24.244 14.5062 24.0084 12.8069 23.5434L12.7707 23.5335L12.734 23.5262C11.4162 23.265 10.1116 23.1321 8.85681 23.1321C8.25435 23.1321 7.66395 23.1623 7.08615 23.2228C8.04023 22.5117 8.98801 21.5109 8.98801 19.4272V8.33198C8.98801 8.07498 8.98801 7.81589 8.9665 7.55994L11.8497 8.07967C11.7841 8.38828 11.7668 8.73807 11.7658 9.14468C11.3874 14.0449 11.305 18.834 13.2215 20.7341C14.5556 22.0572 16.2654 22.7276 18.3031 22.7276C19.0762 22.7276 19.9127 22.6296 20.7891 22.4367L20.861 22.421L20.9297 22.3955C23.6665 21.3779 25.0541 18.7522 25.0541 14.5912C25.0541 10.4302 22.9791 7.55733 18.8872 5.4831C16.0392 4.03963 12.2885 3.11693 7.739 2.74108L7.69544 2.73743H7.65188C5.00482 2.73743 4.26013 4.12303 4.05179 4.94929L4.0203 5.07388V5.20264C4.0203 5.49665 4.00036 5.72185 3.97307 5.89335L0.981735 0.331127L3.32442 1.67607L3.57055 1.69119C4.22969 1.73185 4.93082 1.7699 5.67288 1.80952C12.5545 2.17912 22.9544 2.73795 27.2719 7.5787C28.7901 9.28074 29.4435 11.3654 29.2693 13.9526L29.2677 13.9724V13.9922C29.1695 17.3697 27.9972 19.9908 25.7815 21.7835C23.7914 23.3933 21.0583 24.244 17.8775 24.244H17.8765Z" fill="url(#paint0_linear_114_6641)"/>
<defs>
<linearGradient id="paint0_linear_114_6641" x1="70.7654" y1="-2.19403" x2="70.7654" y2="24.9577" gradientUnits="userSpaceOnUse">
<stop stop-color="#F3B90D"/>
<stop offset="0.56" stop-color="#FCE77C"/>
<stop offset="1" stop-color="#F48806"/>
</linearGradient>
</defs>
</svg>
