<svg width="32" height="32" viewBox="0 0 32 32" fill="none" xmlns="http://www.w3.org/2000/svg">
<g clip-path="url(#clip0_504_13841)">
<path d="M32 10.928C32 9.72289 31.0232 8.74609 29.8181 8.74609C28.6133 8.74609 27.6365 9.72289 27.6365 10.928C27.6399 11.0166 27.6487 11.105 27.6631 11.1926L21.3266 14.3608L17.1584 8.406C18.1797 7.76611 18.4885 6.41967 17.8486 5.39868C17.209 4.37744 15.8625 4.06836 14.8413 4.70825C13.8203 5.34814 13.5112 6.69458 14.1511 7.71557C14.3262 7.99487 14.562 8.23095 14.8413 8.406L10.6733 14.3608L4.33691 11.1926C4.35107 11.105 4.36011 11.0166 4.36352 10.928C4.36938 9.72289 3.39722 8.74145 2.19238 8.73559C0.987549 8.72973 0.0058607 9.70165 1.33501e-06 10.9067C-0.00536975 12.0129 0.817872 12.948 1.91577 13.083L4.36377 24.0998V26.928C4.36377 27.3296 4.68921 27.6553 5.09082 27.6553H26.9092C27.3108 27.6553 27.6365 27.3296 27.6365 26.928V24.0998L30.0842 13.0828C31.175 12.9509 31.9968 12.0268 32 10.928ZM29.8181 10.2007C30.2199 10.2007 30.5454 10.5264 30.5454 10.928C30.5454 11.3298 30.2199 11.6553 29.8181 11.6553C29.4165 11.6553 29.0908 11.3298 29.0908 10.928C29.091 10.5264 29.4165 10.2009 29.8181 10.2007ZM16 5.83715C16.4016 5.83715 16.7273 6.16259 16.7273 6.56445C16.7273 6.96606 16.4016 7.29174 16 7.29174C15.5984 7.29174 15.2727 6.96606 15.2727 6.56445C15.2729 6.16284 15.5984 5.8374 16 5.83715ZM11.5049 15.7085L16 9.28735L20.4951 15.7085C20.7016 16.0041 21.0937 16.1035 21.4162 15.9421L28.3081 12.4966C28.4167 12.6001 28.5356 12.6924 28.6631 12.7715L26.3259 23.2917H5.67407L3.33691 12.7715C3.46435 12.6921 3.58325 12.6001 3.69189 12.4966L10.5837 15.9421C10.9062 16.103 11.2981 16.0036 11.5049 15.7085ZM1.45459 10.928C1.45459 10.5264 1.78003 10.2007 2.18188 10.2007C2.5835 10.2007 2.90918 10.5264 2.90918 10.928C2.90918 11.3298 2.5835 11.6553 2.18188 11.6553C1.78027 11.655 1.45483 11.3296 1.45459 10.928ZM26.1819 26.2007H5.81811V24.7461H26.1819V26.2007Z" fill="white"/>
</g>
<defs>
<clipPath id="clip0_504_13841">
<rect width="32" height="32" fill="white"/>
</clipPath>
</defs>
</svg>
